# xmcd
#
# Track frame offsets: 
#        150
#        16036
#        29926
#        44168
#        58067
#        70692
#        82176
#        96726
#        111586
#        128336
#        145593
#        158739
#        174578
#        189108
#        206421
#        220505
#        235951
#        248791
#        264399
#        278108
#        293584
#
# Disc length: 4118 seconds
#
# Revision: 2
# Processed by: cddbd v1.5.2PL0 Copyright (c) Steve Scherf et al.
# Submitted via: ExactAudioCopyFreeDBPlugin 1.0
#
DISCID=33101415
DTITLE=Various Artist - Holland Dozier Holland:  The Complete 45s Col
DTITLE=lection (Invictus, Hot Wax, Music Merchant), 1969-1977 [Harmles
DTITLE=s box set]
DYEAR=2014
DGENRE=Soul
TTITLE0=The Honey Cone - One Monkey Don't Stop No Show (Part I)
TTITLE1=Laura Lee - Love and Liberty
TTITLE2=The Silent Majority - Something New About You
TTITLE3=The Honey Cone - The Day I Found Myself
TTITLE4=The Politicians - Free Your Mind (instrumental)
TTITLE5=Laura Lee - I Don't Want Nothing Old (But Money)
TTITLE6=100 Proof Aged in Soul - Everything Good is Bad
TTITLE7=Laura Lee - Rip Off
TTITLE8=The Honey Cone - Sittin' on a Time Bomb (Waitin' for the Hurt 
TTITLE8=to Come)
TTITLE9=100 Proof Aged in Soul - Don't Scratch Where it Don't Itch
TTITLE10=Laura Lee - If You Can Beat Me Rockin' (You Can Have My Chair
TTITLE10=)
TTITLE11=The Honey Cone - Innocent 'til Proven Guilty
TTITLE12=Laura Lee - Crumbs Off the Table
TTITLE13=100 Proof Aged in Soul - Since You Been Gone
TTITLE14=The Honey Cone - Ace in the Hole
TTITLE15=The Honey Cone - If I Can't Fly
TTITLE16=Lee Charles - Somebody's Gonna Hurt You, Like You Hurt Me
TTITLE17=Laura Lee - I'll Catch You When You Fall
TTITLE18=100 Proof Aged in Soul - My Piece of the Rock (vocal)
TTITLE19=The Honey Cone - Somebody is Always Messing Up a Good Thing (
TTITLE19=ft Sharon Cash)
TTITLE20=100 Proof Aged in Soul and New York Port Authority - I'm Mad 
TTITLE20=as Hell (Ain't Gonna Take No More) (Part 1)
EXTD=
EXTT0=
EXTT1=
EXTT2=
EXTT3=
EXTT4=
EXTT5=
EXTT6=
EXTT7=
EXTT8=
EXTT9=
EXTT10=
EXTT11=
EXTT12=
EXTT13=
EXTT14=
EXTT15=
EXTT16=
EXTT17=
EXTT18=
EXTT19=
EXTT20=
PLAYORDER=
